# xmcd
#
# Track frame offsets:
#	150
#	14580
#	33109
#	36827
#	52042
#	66598
#	89690
#	106241
#	119449
#	139048
#	159445
#	182455
#	188174
#	213700
#	233483
#	236863
#
# Disc length: 3427 seconds
#
# Revision: 3
# Processed by: cddbd v1.5.1PL2 Copyright (c) Steve Scherf et al.
# Submitted via: EasyCDDAExtractor 8.0.2.1
#
DISCID=e20d6110
DTITLE=Alice Cooper - Polaris Amphitheatre Columbus 20-07-96
DYEAR=1996
DGENRE=Hard Rock
TTITLE0=Billion Dollar Babies
TTITLE1=Eighteen
TTITLE2=Desperado Intro
TTITLE3=Desperado
TTITLE4=No More Mr Nice Guy
TTITLE5=Poison
TTITLE6=Welcome To My Nightmare
TTITLE7=Cold Ethyl
TTITLE8=Only Women Bleed
TTITLE9=Feed My Frankenstein
TTITLE10=Gutter Cats Vs The Jets
TTITLE11=Steven
TTITLE12=Ballad Of Dwight Fry
TTITLE13=School's Out
TTITLE14=Band Introduction
TTITLE15=Elected
EXTD=
EXTT0=
EXTT1=
EXTT2=
EXTT3=
EXTT4=
EXTT5=
EXTT6=
EXTT7=
EXTT8=
EXTT9=
EXTT10=
EXTT11=
EXTT12=
EXTT13=
EXTT14=
EXTT15=
PLAYORDER=
